<?xml version="1.0" encoding="UTF-8"?>
<svg xmlns="http://www.w3.org/2000/svg" id="Group_22" data-name="Group 22" width="34.779" height="34.762" viewBox="0 0 34.779 34.762">
  <path id="Path_118" data-name="Path 118" d="M-601.556,260.017h-7.167V236.838h6.9V240c.149-.172.218-.236.268-.312a7.528,7.528,0,0,1,6.092-3.436,10.357,10.357,0,0,1,4.329.56,6.737,6.737,0,0,1,4.4,5.538,25.257,25.257,0,0,1,.44,4.361c.058,4.309.023,8.618.025,12.928,0,.107,0,.214,0,.363h-7.182v-.617c0-3.494.012-6.989-.008-10.483a22.377,22.377,0,0,0-.179-2.923c-.363-2.632-1.968-3.768-4.582-3.31a3.763,3.763,0,0,0-3.149,3.584,26.039,26.039,0,0,0-.177,2.814c-.021,3.422-.008,6.844-.008,10.266Z" transform="translate(621.041 -225.259)" fill="#43bede"></path>
  <path id="Path_119" data-name="Path 119" d="M-709.35,265.2H-716.5V242.027h7.148Z" transform="translate(717.109 -230.441)" fill="#43bede"></path>
  <path id="Path_120" data-name="Path 120" d="M-717.946,143.758a4.214,4.214,0,0,1-4.17-4.192,4.186,4.186,0,0,1,4.155-4.2,4.209,4.209,0,0,1,4.209,4.155A4.237,4.237,0,0,1-717.946,143.758Z" transform="translate(722.115 -135.37)" fill="#43bede"></path>
</svg>
