<?xml version="1.0" encoding="UTF-8"?>
<svg xmlns="http://www.w3.org/2000/svg" id="Group_23" data-name="Group 23" width="34.788" height="34.778" viewBox="0 0 34.788 34.778">
  <path id="Path_121" data-name="Path 121" d="M-1815,146.768c2.5,0,5,0,7.5,0a9.583,9.583,0,0,1,9.7,7.9,9.49,9.49,0,0,1,.154,1.89q.018,7.6,0,15.209a9.582,9.582,0,0,1-7.924,9.622,10.234,10.234,0,0,1-1.945.147q-7.525.017-15.049.005a9.58,9.58,0,0,1-9.7-7.9,9.62,9.62,0,0,1-.155-1.89q-.017-7.6,0-15.209a9.581,9.581,0,0,1,7.923-9.621,10.448,10.448,0,0,1,1.946-.147C-1820.035,146.758-1817.517,146.768-1815,146.768Zm-.04,31.691c2.463,0,4.926.03,7.387-.017a8.449,8.449,0,0,0,2.5-.37,6.408,6.408,0,0,0,4.421-6.406q.02-7.521,0-15.043a7.337,7.337,0,0,0-.158-1.616,6.493,6.493,0,0,0-6.669-5.157q-7.469-.015-14.937,0a7.648,7.648,0,0,0-1.723.169,6.477,6.477,0,0,0-5.118,6.643q-.018,7.494,0,14.988a6.583,6.583,0,0,0,.561,2.9,6.479,6.479,0,0,0,6.242,3.895C-1820.037,178.471-1817.538,178.459-1815.04,178.459Z" transform="translate(1832.428 -146.765)" fill="#43bede"></path>
  <path id="Path_122" data-name="Path 122" d="M-1745.8,224.411a8.969,8.969,0,0,1,8.959,8.978,8.967,8.967,0,0,1-8.953,8.93,8.968,8.968,0,0,1-8.958-8.978A8.965,8.965,0,0,1-1745.8,224.411Zm-.021,14.824a5.887,5.887,0,0,0,5.9-5.846,5.886,5.886,0,0,0-5.847-5.895,5.888,5.888,0,0,0-5.9,5.846A5.888,5.888,0,0,0-1745.82,239.235Z" transform="translate(1763.19 -215.976)" fill="#43bede"></path>
  <path id="Path_123" data-name="Path 123" d="M-1604.9,204.978a2.272,2.272,0,0,1-2.285-2.216,2.246,2.246,0,0,1,2.265-2.279,2.261,2.261,0,0,1,2.265,2.232A2.286,2.286,0,0,1-1604.9,204.978Z" transform="translate(1631.658 -194.648)" fill="#43bede"></path>
</svg>
