<?xml version="1.0" encoding="UTF-8"?>
<svg xmlns="http://www.w3.org/2000/svg" width="147.5" height="93.96" viewBox="0 0 147.5 93.96">
  <g id="Group_107" data-name="Group 107" transform="translate(-2216.1 -1135.56)">
    <path id="Path_215" data-name="Path 215" d="M2404.882,1176.112a19.9,19.9,0,1,0-19.9-19.9A19.924,19.924,0,0,0,2404.882,1176.112Zm0-37.917a18.016,18.016,0,1,1-18.016,18.016A18.037,18.037,0,0,1,2404.882,1138.195Z" transform="translate(-115.315)" fill="#fff" stroke="#fff" stroke-width="1.5"></path>
    <path id="Path_216" data-name="Path 216" d="M2550.5,1219.026a17.126,17.126,0,1,0-17.126-17.126A17.146,17.146,0,0,0,2550.5,1219.026Zm0-32.368a15.241,15.241,0,1,1-15.241,15.241A15.258,15.258,0,0,1,2550.5,1186.659Z" transform="translate(-217.091 -33.24)" fill="#fff" stroke="#fff" stroke-width="1.5"></path>
    <path id="Path_217" data-name="Path 217" d="M2271.385,1219.026a17.126,17.126,0,1,0-17.126-17.126A17.146,17.146,0,0,0,2271.385,1219.026Zm0-32.368a15.241,15.241,0,1,1-15.241,15.241A15.259,15.259,0,0,1,2271.385,1186.659Z" transform="translate(-25.658 -33.24)" fill="#fff" stroke="#fff" stroke-width="1.5"></path>
    <path id="Path_218" data-name="Path 218" d="M2338.084,1277.882h-8.221a24.48,24.48,0,0,0-10.768,2.463,30.763,30.763,0,0,0-24.41-12.141h-10.238a30.715,30.715,0,0,0-24.257,11.944,24.473,24.473,0,0,0-10.354-2.265h-8.221a24.794,24.794,0,0,0-24.766,24.766v15.641a.942.942,0,0,0,.942.942h106.56a.858.858,0,0,1,.569,0h36.986a.942.942,0,0,0,.942-.942v-15.641A24.794,24.794,0,0,0,2338.084,1277.882Zm-4.112,4.534,4.457,16.56-4.457,4.4-4.454-4.4Zm-88.244,0,4.454,16.56-4.454,4.4-4.457-4.4Zm-26.993,20.232a22.907,22.907,0,0,1,22.881-22.881h2.873l-5.181,19.25a.942.942,0,0,0,.248.916l5.51,5.438a.943.943,0,0,0,1.324,0l5.506-5.438a.942.942,0,0,0,.248-.915l-5.178-19.25h2.87a22.612,22.612,0,0,1,9.227,1.94,30.325,30.325,0,0,0-5.228,17.105v18.534h-35.1Zm104.675,14.7h-67.689v-18.534a28.461,28.461,0,0,1,5.521-16.926,28.819,28.819,0,0,1,23.207-11.8h3.979l-7.034,27.21a.944.944,0,0,0,.25.907l7.26,7.165a.942.942,0,0,0,1.324,0l7.26-7.165a.943.943,0,0,0,.25-.907l-7.033-27.21h3.982a28.871,28.871,0,0,1,23.08,11.619,28.5,28.5,0,0,1,5.645,17.105Zm-33.845-44.132,6.211,24.029-6.211,6.131-6.211-6.131Zm71.4,44.132h-35.67v-18.534a30.351,30.351,0,0,0-5.094-16.909,22.609,22.609,0,0,1,9.662-2.137h2.87l-5.178,19.25a.941.941,0,0,0,.248.915l5.507,5.438a.942.942,0,0,0,1.324,0l5.51-5.438a.943.943,0,0,0,.248-.916l-5.181-19.25h2.873a22.907,22.907,0,0,1,22.881,22.881Z" transform="translate(0 -90.461)" fill="#fff" stroke="#fff" stroke-width="1.5"></path>
  </g>
</svg>
