<?xml version="1.0" encoding="UTF-8"?>
<svg xmlns="http://www.w3.org/2000/svg" width="347.286" height="71.617" viewBox="0 0 347.286 71.617">
  <g id="Group_172" data-name="Group 172" transform="translate(-1374.778 -1131.463)">
    <path id="Path_1" data-name="Path 1" d="M1419.679,1150.122l-.05,4.177a25.673,25.673,0,0,0-16.517-5.81c-16.525,0-28.335,11.917-28.335,28.658,0,16.79,11.81,28.849,28.335,28.849a25.593,25.593,0,0,0,16.31-5.652l.067,3.82h15.92v-54.042Zm-2.007,27.655c-.007.249-.007.506-.033.754-.024.215-.057.414-.091.613-.033.232-.058.473-.108.7a4.922,4.922,0,0,1-.124.506,7.4,7.4,0,0,1-.191.737c-.058.2-.133.381-.191.572s-.133.373-.207.555a13.362,13.362,0,1,1-1.177-12.216,12.659,12.659,0,0,1,2.138,7.185v.05l.008.016C1417.7,1177.43,1417.682,1177.6,1417.673,1177.778Z" transform="translate(0 -2.916)" fill="#fff"></path>
    <path id="Path_2" data-name="Path 2" d="M1516.165,1150.527l-21.73,54.044h-16.863l-22.016-54.044h20.4l10.212,32.01,10.1-32.01Z" transform="translate(-13.834 -3.265)" fill="#fff"></path>
    <path id="Path_3" data-name="Path 3" d="M1575.738,1151.214l-.058,4.177a25.662,25.662,0,0,0-16.508-5.793c-16.524,0-28.334,11.909-28.334,28.649,0,10.65,4.748,19.384,12.431,24.357a26.022,26.022,0,0,1,36.912,2.668h11.287v-54.05Zm-2.005,27.663c-.008.257-.008.506-.033.754-.025.215-.058.414-.091.621-.033.224-.057.464-.108.688a5.03,5.03,0,0,1-.124.505c-.05.249-.117.5-.191.746-.058.19-.132.373-.19.563s-.133.381-.207.555a13.359,13.359,0,1,1-1.177-12.208,12.631,12.631,0,0,1,2.137,7.177v.058l.009.008C1573.759,1178.53,1573.741,1178.7,1573.733,1178.877Z" transform="translate(-26.727 -3.106)" fill="#fff"></path>
    <path id="Path_4" data-name="Path 4" d="M1668.856,1171.288v32.955H1650.24v-30.381c0-6.29-2.362-9.411-7.048-9.411-5.806,0-9.143,4.053-9.143,10.933v28.859h-18.616V1150.2h15.415l.206,5.576a22.439,22.439,0,0,1,17.011-7.173c12.55,0,20.792,8.919,20.792,22.687" transform="translate(-41.215 -2.935)" fill="#fff"></path>
    <path id="Path_5" data-name="Path 5" d="M1728.158,1185v16.3h-12.81c-11.953,0-19.219-7.31-19.219-19.318V1161.6h-9.889v-4.351l24.216-25.789h3.822v15.8h13.575v14.34h-13.1v17.2c0,3.873,2.337,6.2,6.265,6.2Z" transform="translate(-53.341 0)" fill="#fff"></path>
    <path id="Path_6" data-name="Path 6" d="M1778.585,1151.723h-2.753v-.5h6.1v.5h-2.753v7.937h-.6Z" transform="translate(-68.684 -3.385)" fill="#fff"></path>
    <path id="Path_7" data-name="Path 7" d="M1791.3,1155.661c-.081-1.262-.181-2.816-.174-3.741h-.037c-.3.913-.653,1.9-1.138,3.151l-1.771,4.587h-.417l-1.659-4.488c-.485-1.311-.84-2.325-1.094-3.257h-.031c-.025.995-.081,2.461-.18,3.86l-.268,3.879h-.584l.616-8.441h.684l1.815,4.866c.4,1.076.7,1.921.932,2.735h.031c.218-.777.516-1.6.952-2.728l1.883-4.873h.715l.565,8.441h-.59Z" transform="translate(-70.074 -3.382)" fill="#fff"></path>
    <rect id="Rectangle_1" data-name="Rectangle 1" width="18.616" height="54.044" transform="translate(1683.503 1147.263)" fill="#fff"></rect>
  </g>
</svg>
