<?xml version="1.0" encoding="UTF-8"?>
<svg xmlns="http://www.w3.org/2000/svg" width="260" height="53.617" viewBox="0 0 260 53.617">
  <g id="Group_3" data-name="Group 3" transform="translate(-1374.778 -1131.463)">
    <path id="Path_1" data-name="Path 1" d="M1408.394,1149.712l-.037,3.127a19.22,19.22,0,0,0-12.365-4.349c-12.372,0-21.213,8.922-21.213,21.455,0,12.57,8.842,21.6,21.213,21.6a19.16,19.16,0,0,0,12.21-4.231l.05,2.86h11.919v-40.459Zm-1.5,20.7c-.006.186-.006.379-.025.565-.018.161-.043.31-.068.459-.025.174-.043.354-.081.521a3.684,3.684,0,0,1-.093.379,5.562,5.562,0,0,1-.143.552c-.044.149-.1.286-.143.428s-.1.279-.155.416a10,10,0,1,1-.881-9.146,9.478,9.478,0,0,1,1.6,5.379v.037l.006.012C1406.911,1170.156,1406.9,1170.286,1406.892,1170.417Z" transform="translate(0 -6.463)" fill="#fff"></path>
    <path id="Path_2" data-name="Path 2" d="M1500.932,1150.527l-16.268,40.461h-12.624l-16.482-40.461h15.272l7.646,23.965,7.562-23.965Z" transform="translate(-30.66 -7.236)" fill="#fff"></path>
    <path id="Path_3" data-name="Path 3" d="M1564.453,1150.808l-.043,3.127a19.213,19.213,0,0,0-12.359-4.337c-12.371,0-21.213,8.916-21.213,21.449,0,7.973,3.555,14.512,9.307,18.235a19.482,19.482,0,0,1,27.635,2h8.45v-40.466Zm-1.5,20.711c-.006.192-.006.379-.025.565-.019.161-.043.31-.068.465s-.043.347-.081.515a3.81,3.81,0,0,1-.093.378c-.038.186-.087.373-.143.559-.043.143-.1.279-.142.422s-.1.285-.155.416a10,10,0,1,1-.881-9.139,9.456,9.456,0,0,1,1.6,5.373v.043l.007.006C1562.971,1171.258,1562.958,1171.388,1562.952,1171.518Z" transform="translate(-59.233 -6.883)" fill="#fff"></path>
    <path id="Path_4" data-name="Path 4" d="M1655.429,1165.586v24.672h-13.937v-22.745c0-4.709-1.768-7.045-5.277-7.045-4.346,0-6.845,3.034-6.845,8.185v21.606h-13.937V1149.8h11.54l.154,4.174a16.8,16.8,0,0,1,12.736-5.37c9.4,0,15.566,6.677,15.566,16.985" transform="translate(-91.341 -6.505)" fill="#fff"></path>
    <path id="Path_5" data-name="Path 5" d="M1717.622,1171.547v12.206h-9.59c-8.949,0-14.388-5.472-14.388-14.463v-15.263h-7.4v-3.257l18.129-19.307h2.862v11.829h10.163v10.735h-9.809V1166.9c0,2.9,1.75,4.644,4.691,4.644Z" transform="translate(-118.217 0)" fill="#fff"></path>
    <path id="Path_6" data-name="Path 6" d="M1777.893,1151.6h-2.061v-.372h4.565v.372h-2.061v5.942h-.447Z" transform="translate(-152.221 -7.501)" fill="#fff"></path>
    <path id="Path_7" data-name="Path 7" d="M1789.451,1154.543c-.061-.945-.135-2.108-.13-2.8h-.028c-.228.683-.489,1.419-.852,2.359l-1.326,3.434h-.312l-1.242-3.36c-.363-.982-.629-1.74-.819-2.438h-.023c-.019.745-.06,1.843-.135,2.89l-.2,2.9h-.437l.461-6.319h.512l1.359,3.643c.3.805.521,1.438.7,2.047H1787c.163-.581.387-1.2.712-2.042l1.409-3.648h.536l.423,6.319h-.442Z" transform="translate(-155.301 -7.495)" fill="#fff"></path>
    <rect id="Rectangle_1" data-name="Rectangle 1" width="13.937" height="40.461" transform="translate(1605.909 1143.292)" fill="#fff"></rect>
  </g>
</svg>
