<?xml version="1.0" encoding="UTF-8"?>
<svg xmlns="http://www.w3.org/2000/svg" width="17.966" height="34.713" viewBox="0 0 17.966 34.713">
  <path id="Path_117" data-name="Path 117" d="M-1138.3,196.56h-6.414V180.723h-5.294v-6.181h5.284c0-.28,0-.492,0-.7.037-1.79-.01-3.587.133-5.369a6.94,6.94,0,0,1,6.567-6.561c1.973-.136,3.964-.011,5.981,0v5.649c-.455,0-.918-.009-1.38,0-.886.022-1.775.014-2.656.095-1.364.125-2.064.707-2.163,2.053-.117,1.579-.027,3.173-.027,4.823h6.056c-.27,2.088-.531,4.108-.8,6.169h-5.289Z" transform="translate(1150.008 -161.847)" fill="#43bede"></path>
</svg>
