<svg width="32" height="32" viewBox="0 0 32 32" fill="none" xmlns="http://www.w3.org/2000/svg">
  <path d="M8.54545 14.5455C11.2364 14.5455 13.4545 16.7636 13.4545 19.4545C13.4545 22.1455 11.2364 24.3636 8.54545 24.3636C5.85455 24.3636 3.63636 22.1455 3.63636 19.4545C3.63636 11.2727 10.1818 7.63636 13.4545 7.63636L14.9091 9.81818C11.6364 10.5455 9.45455 13.0909 9.45455 15.2727C9.81818 14.9091 10.1818 14.5455 11.2727 14.5455H8.54545Z" fill="#40CFFF"/>
  <path d="M21.8182 14.5455C24.5091 14.5455 26.7273 16.7636 26.7273 19.4545C26.7273 22.1455 24.5091 24.3636 21.8182 24.3636C19.1273 24.3636 16.9091 22.1455 16.9091 19.4545C16.9091 11.2727 23.4545 7.63636 26.7273 7.63636L28.1818 9.81818C24.9091 10.5455 22.7273 13.0909 22.7273 15.2727C23.0909 14.9091 23.4545 14.5455 24.5455 14.5455H21.8182Z" fill="#40CFFF"/>
</svg>
