<?xml version="1.0" encoding="UTF-8"?>
<svg xmlns="http://www.w3.org/2000/svg" width="114.411" height="94.46" viewBox="0 0 114.411 94.46">
  <g id="Group_117" data-name="Group 117" transform="translate(-3156.325 -1136.492)">
    <path id="Path_227" data-name="Path 227" d="M3265.389,1137.492h-55.8a4.352,4.352,0,0,0-4.347,4.347v28.135h-43.569a4.352,4.352,0,0,0-4.347,4.348v40.2a4.352,4.352,0,0,0,4.347,4.347h2.473v10.3a.788.788,0,0,0,1.345.557l10.853-10.853h41.13a4.352,4.352,0,0,0,4.348-4.347v-28.137h28.9l10.852,10.855a.788.788,0,0,0,1.345-.557v-10.3h2.474a4.352,4.352,0,0,0,4.347-4.347v-40.2A4.352,4.352,0,0,0,3265.389,1137.492Zm-45.144,77.029a2.774,2.774,0,0,1-2.772,2.771h-41.457a.788.788,0,0,0-.557.231l-9.738,9.738v-9.181a.788.788,0,0,0-.788-.788h-3.261a2.774,2.774,0,0,1-2.771-2.771v-40.2a2.774,2.774,0,0,1,2.771-2.772h55.8a2.775,2.775,0,0,1,2.772,2.772Zm47.915-32.483a2.774,2.774,0,0,1-2.771,2.771h-3.262a.788.788,0,0,0-.788.788v9.183l-9.737-9.74a.788.788,0,0,0-.557-.231h-29.223v-10.486a4.352,4.352,0,0,0-4.348-4.348h-10.656v-28.135a2.774,2.774,0,0,1,2.771-2.771h55.8a2.774,2.774,0,0,1,2.771,2.771Z" transform="translate(0)" fill="#fff" stroke="#fff" stroke-width="2"></path>
    <path id="Path_228" data-name="Path 228" d="M3395.665,1173.722h-11.148v-5.692a.788.788,0,0,0-1.576,0v5.692h-11.148a.788.788,0,1,0,0,1.576H3390.5a24.4,24.4,0,0,1-6.819,11.629,32.921,32.921,0,0,1-6.056-7.61.788.788,0,0,0-1.365.787,34.517,34.517,0,0,0,6.28,7.913,38,38,0,0,1-8.764,5.918.788.788,0,1,0,.7,1.411,39.382,39.382,0,0,0,9.24-6.276,34.56,34.56,0,0,0,9.861,5.933.788.788,0,0,0,.575-1.468,32.971,32.971,0,0,1-9.295-5.565,25.749,25.749,0,0,0,7.252-12.672h3.557a.788.788,0,1,0,0-1.576Z" transform="translate(-146.326 -20.373)" fill="#fff" stroke="#fff" stroke-width="2"></path>
    <path id="Path_229" data-name="Path 229" d="M3236.172,1276.765a.788.788,0,0,0-1.481,0l-9.336,25.7a.788.788,0,1,0,1.481.538l3.341-9.2h10.508l3.341,9.2a.788.788,0,1,0,1.481-.538Zm-5.422,15.467,4.682-12.89,4.681,12.89Z" transform="translate(-46.553 -95.018)" fill="#fff" stroke="#fff" stroke-width="2"></path>
  </g>
</svg>
