<?xml version="1.0" encoding="UTF-8"?>
<svg xmlns="http://www.w3.org/2000/svg" width="93.46" height="93.461" viewBox="0 0 93.46 93.461">
  <g id="Group_116" data-name="Group 116" transform="translate(-2742.238 -1157.848)">
    <g id="Group_108" data-name="Group 108" transform="translate(2742.738 1158.349)">
      <path id="Path_219" data-name="Path 219" d="M2788.968,1250.809a47.069,47.069,0,0,1-5.235-.293c-.585-.066-1.2-.148-1.819-.241a46.238,46.238,0,0,1,0-91.392c.624-.094,1.235-.175,1.82-.241a47.054,47.054,0,0,1,8.4-.186c.649.042,1.305.1,1.947.172a46.225,46.225,0,0,1,41.12,45.932h0v.019a46.226,46.226,0,0,1-41.121,45.951c-.641.071-1.3.129-1.948.172C2791.088,1250.773,2790.024,1250.809,2788.968,1250.809Zm0-90.885a45.408,45.408,0,0,0-5.059.283c-.565.064-1.157.142-1.76.233a44.662,44.662,0,0,0,0,88.276c.6.09,1.194.169,1.759.233a45.4,45.4,0,0,0,8.115.18c.63-.041,1.261-.1,1.88-.166a44.649,44.649,0,0,0,39.718-44.384l.788-.019h-.788a44.65,44.65,0,0,0-39.717-44.366c-.619-.069-1.251-.125-1.879-.166C2791.016,1159.959,2789.988,1159.925,2788.968,1159.925Z" transform="translate(-2742.738 -1158.349)" fill="#fff" stroke="#fff" stroke-width="1"></path>
    </g>
    <g id="Group_109" data-name="Group 109" transform="translate(2750.031 1219.43)">
      <path id="Path_220" data-name="Path 220" d="M2804.813,1383.508a47.033,47.033,0,0,1-5.235-.293c-.585-.066-1.2-.147-1.819-.241A46.26,46.26,0,0,1,2766,1362.4a.788.788,0,0,1,.289-1.123,71.694,71.694,0,0,1,8.05-3.676,80.922,80.922,0,0,1,14.758-4.095,90.075,90.075,0,0,1,29.542-.315,81.877,81.877,0,0,1,15.469,3.968,72.378,72.378,0,0,1,9.223,4.117.788.788,0,0,1,.29,1.123,46.041,46.041,0,0,1-33.7,20.824c-.641.071-1.3.129-1.948.172C2806.933,1383.472,2805.868,1383.508,2804.813,1383.508Zm-37.011-21.241A44.675,44.675,0,0,0,2798,1381.416c.6.09,1.194.169,1.759.233a45.4,45.4,0,0,0,8.115.18c.63-.041,1.262-.1,1.88-.166a44.456,44.456,0,0,0,32.075-19.395,71.187,71.187,0,0,0-8.255-3.623,80.286,80.286,0,0,0-15.171-3.892,88.5,88.5,0,0,0-29.02.309,79.308,79.308,0,0,0-14.47,4.014A70.6,70.6,0,0,0,2767.8,1362.267Z" transform="translate(-2765.875 -1352.129)" fill="#fff" stroke="#fff" stroke-width="1"></path>
    </g>
    <g id="Group_110" data-name="Group 110" transform="translate(2750.076 1158.349)">
      <path id="Path_221" data-name="Path 221" d="M2804.909,1189.636a89.052,89.052,0,0,1-15.7-1.38,80.785,80.785,0,0,1-14.742-4.085,71.493,71.493,0,0,1-8.038-3.664.788.788,0,0,1-.289-1.125,46.261,46.261,0,0,1,31.709-20.5c.624-.094,1.235-.175,1.82-.241a47.049,47.049,0,0,1,8.4-.186c.649.042,1.305.1,1.947.172a46.057,46.057,0,0,1,33.655,20.755.788.788,0,0,1-.289,1.125,72.056,72.056,0,0,1-9.214,4.1,81.843,81.843,0,0,1-15.45,3.959A89.436,89.436,0,0,1,2804.909,1189.636Zm-36.965-10.114a70.351,70.351,0,0,0,7.092,3.178,79.184,79.184,0,0,0,14.455,4.005,88.49,88.49,0,0,0,28.986.309,80.276,80.276,0,0,0,15.153-3.882,70.833,70.833,0,0,0,8.244-3.61,44.475,44.475,0,0,0-32.028-19.328c-.619-.069-1.251-.125-1.879-.166a45.3,45.3,0,0,0-8.117.179c-.564.064-1.157.142-1.76.233A44.675,44.675,0,0,0,2767.945,1179.522Z" transform="translate(-2766.017 -1158.349)" fill="#fff" stroke="#fff" stroke-width="1"></path>
    </g>
    <g id="Group_111" data-name="Group 111" transform="translate(2742.738 1158.349)">
      <path id="Path_222" data-name="Path 222" d="M2788.968,1250.809a47.069,47.069,0,0,1-5.235-.293c-.585-.066-1.2-.148-1.819-.241a46.238,46.238,0,0,1,0-91.392c.624-.094,1.235-.175,1.82-.241a47.054,47.054,0,0,1,8.4-.186c.649.042,1.305.1,1.947.172a.793.793,0,0,1,.23.062,47.728,47.728,0,0,1,24.374,24.867,52.1,52.1,0,0,1,4.353,21h0v.019a52.146,52.146,0,0,1-4.317,20.941,47.736,47.736,0,0,1-24.409,24.948.789.789,0,0,1-.23.062c-.642.071-1.3.13-1.949.172C2791.088,1250.773,2790.024,1250.809,2788.968,1250.809Zm0-90.885a45.408,45.408,0,0,0-5.059.283c-.565.064-1.157.142-1.76.233a44.662,44.662,0,0,0,0,88.276c.6.09,1.194.169,1.759.233a45.4,45.4,0,0,0,8.115.18c.589-.039,1.18-.09,1.761-.153a46.179,46.179,0,0,0,23.488-24.085,50.58,50.58,0,0,0,4.186-20.312l.788-.019h-.788a50.532,50.532,0,0,0-4.22-20.373,46.171,46.171,0,0,0-23.453-24.007c-.581-.063-1.172-.114-1.759-.153C2791.016,1159.959,2789.988,1159.925,2788.968,1159.925Z" transform="translate(-2742.738 -1158.349)" fill="#fff" stroke="#fff" stroke-width="1"></path>
    </g>
    <g id="Group_112" data-name="Group 112" transform="translate(2753.546 1158.349)">
      <path id="Path_223" data-name="Path 223" d="M2812.449,1250.809a47.058,47.058,0,0,1-5.235-.293c-.585-.066-1.2-.148-1.819-.241a.8.8,0,0,1-.209-.062,47.856,47.856,0,0,1-23.643-24.25,52.915,52.915,0,0,1,.033-42.85,47.868,47.868,0,0,1,23.61-24.168.807.807,0,0,1,.209-.062c.622-.093,1.234-.174,1.818-.241a47.05,47.05,0,0,1,8.4-.186c.649.042,1.3.1,1.947.172a46.226,46.226,0,0,1,41.12,45.932h0v.019a46.226,46.226,0,0,1-41.121,45.951c-.641.071-1.3.129-1.948.172C2814.569,1250.773,2813.5,1250.809,2812.449,1250.809Zm-6.71-2.077c.565.084,1.12.157,1.651.217a45.4,45.4,0,0,0,8.115.18c.63-.041,1.262-.1,1.88-.166a44.649,44.649,0,0,0,39.718-44.384l.788-.019h-.788a44.65,44.65,0,0,0-39.717-44.366c-.619-.069-1.251-.125-1.879-.166a45.3,45.3,0,0,0-8.117.179c-.531.06-1.086.133-1.651.217a46.3,46.3,0,0,0-22.726,23.333,51.336,51.336,0,0,0-.033,41.562A46.294,46.294,0,0,0,2805.739,1248.733Z" transform="translate(-2777.027 -1158.349)" fill="#fff" stroke="#fff" stroke-width="1"></path>
    </g>
    <g id="Group_113" data-name="Group 113" transform="translate(2742.738 1158.349)">
      <path id="Path_224" data-name="Path 224" d="M2788.968,1250.809a47.069,47.069,0,0,1-5.235-.293c-.585-.066-1.2-.148-1.819-.241a46.238,46.238,0,0,1,0-91.392c.624-.094,1.235-.175,1.82-.241a47.054,47.054,0,0,1,8.4-.186.788.788,0,0,1,.614.368,81.147,81.147,0,0,1,10.689,28.833,98.08,98.08,0,0,1,1.454,16.9v.019a98.216,98.216,0,0,1-1.437,16.832,81.23,81.23,0,0,1-10.706,28.923.788.788,0,0,1-.614.368C2791.088,1250.773,2790.024,1250.809,2788.968,1250.809Zm3.11-.894h0Zm-3.11-89.991a45.408,45.408,0,0,0-5.059.283c-.565.064-1.157.142-1.76.233a44.662,44.662,0,0,0,0,88.276c.6.09,1.194.169,1.759.233a45.4,45.4,0,0,0,7.713.206,79.871,79.871,0,0,0,10.276-28.015,96.7,96.7,0,0,0,1.414-16.561v-.019a96.46,96.46,0,0,0-1.43-16.631,79.776,79.776,0,0,0-10.26-27.927C2790.744,1159.951,2789.853,1159.925,2788.968,1159.925Z" transform="translate(-2742.738 -1158.349)" fill="#fff" stroke="#fff" stroke-width="1"></path>
    </g>
    <g id="Group_114" data-name="Group 114" transform="translate(2771.125 1158.349)">
      <path id="Path_225" data-name="Path 225" d="M2850.639,1250.809a47.063,47.063,0,0,1-5.235-.293.788.788,0,0,1-.581-.367,81.225,81.225,0,0,1-10.533-28.423,99.112,99.112,0,0,1,.017-34.384,81.185,81.185,0,0,1,10.516-28.333.788.788,0,0,1,.581-.367,47.041,47.041,0,0,1,8.4-.186c.649.042,1.305.1,1.947.172a46.226,46.226,0,0,1,41.12,45.932h0v.019a46.226,46.226,0,0,1-41.121,45.951c-.641.071-1.3.129-1.948.172C2852.759,1250.773,2851.695,1250.809,2850.639,1250.809Zm-4.679-1.818a45.537,45.537,0,0,0,7.735.139c.629-.041,1.261-.1,1.88-.166a44.649,44.649,0,0,0,39.718-44.384l.788-.019h-.788a44.651,44.651,0,0,0-39.717-44.366c-.619-.069-1.251-.125-1.879-.166a45.319,45.319,0,0,0-7.737.138,79.818,79.818,0,0,0-10.1,27.453,97.533,97.533,0,0,0-.017,33.829A79.876,79.876,0,0,0,2845.96,1248.991Z" transform="translate(-2832.796 -1158.349)" fill="#fff" stroke="#fff" stroke-width="1"></path>
    </g>
    <g id="Group_115" data-name="Group 115" transform="translate(2742.738 1203.772)">
      <path id="Path_226" data-name="Path 226" d="M2834.41,1304.03h-90.884a.788.788,0,0,1,0-1.576h90.884a.788.788,0,1,1,0,1.576Z" transform="translate(-2742.738 -1302.454)" fill="#fff" stroke="#fff" stroke-width="1"></path>
    </g>
  </g>
</svg>
