<?xml version="1.0" encoding="UTF-8"?>
<svg xmlns="http://www.w3.org/2000/svg" width="93.919" height="93.96" viewBox="0 0 93.919 93.96">
  <g id="Group_119" data-name="Group 119" transform="translate(-3616.858 -1136.491)">
    <g id="Group_118" data-name="Group 118" transform="translate(3617.858 1137.491)">
      <path id="Path_230" data-name="Path 230" d="M3663.454,1229.451c-.813,0-1.632,0-2.446-.013a5.834,5.834,0,0,1-5.815-4.682c-.362-1.644-.636-3.325-.9-4.95l-.171-1.042c-.073-.443-.145-.574-.629-.749-1.417-.511-2.821-1.1-4.18-1.669-.905-.379-1.841-.772-2.766-1.135a.89.89,0,0,0-.52-.006c-1.038.682-2.083,1.421-3.094,2.136-.588.416-1.177.833-1.77,1.242a5.863,5.863,0,0,1-7.815-.593c-1.337-1.283-2.706-2.658-4.07-4.087a5.952,5.952,0,0,1-.576-7.655c1.111-1.605,2.208-3.158,3.424-4.876a.461.461,0,0,0,.065-.609c-.977-2.178-1.932-4.481-2.919-7.042-.161-.418-.237-.446-.5-.485-1.806-.271-3.66-.578-5.667-.938a6,6,0,0,1-5.219-6.1c-.04-1.837-.03-3.8.032-5.993a5.953,5.953,0,0,1,5.1-5.519c.984-.154,1.985-.335,2.953-.511.948-.172,1.929-.35,2.9-.5.2-.032.226-.036.35-.349.476-1.206.979-2.422,1.465-3.6s1-2.417,1.478-3.629a.73.73,0,0,0-.039-.418c-.693-1.045-1.435-2.093-2.154-3.106q-.558-.787-1.112-1.577a5.968,5.968,0,0,1,.7-8.259l.332-.334c1.09-1.1,2.218-2.232,3.341-3.336a6.057,6.057,0,0,1,8.03-.625q.563.4,1.125.8c1.187.844,2.413,1.717,3.644,2.525a.886.886,0,0,0,.513,0c.864-.342,1.737-.716,2.582-1.078,1.383-.592,2.813-1.2,4.268-1.709.526-.182.622-.35.719-.918l.266-1.558c.214-1.254.427-2.508.649-3.761a5.873,5.873,0,0,1,5.98-5.206c1.848-.051,3.719-.05,5.56,0a5.861,5.861,0,0,1,5.94,5.22l.05.284c.322,1.821.656,3.7,1.037,5.54a.645.645,0,0,0,.227.243c2.582,1.1,4.965,2.08,7.287,2.985a.754.754,0,0,0,.445-.044c1.582-1.047,3.159-2.175,4.684-3.264l.082-.059a6.056,6.056,0,0,1,7.94.559c1.406,1.368,2.688,2.647,3.919,3.911a5.919,5.919,0,0,1,.653,7.909l-.225.328c-.993,1.448-2.02,2.946-3.1,4.379-.2.266-.235.341,0,.87,1.047,2.343,1.993,4.647,2.811,6.85.146.393.218.419.5.465.955.156,1.908.325,2.861.493.889.157,1.779.315,2.67.462a5.978,5.978,0,0,1,5.354,5.859c.094,2.031.095,4.023,0,5.919a6.069,6.069,0,0,1-5.464,5.914c-2.148.322-3.892.625-5.487.954a.967.967,0,0,0-.351.383c-.473,1.081-.935,2.192-1.381,3.267-.521,1.253-1.06,2.549-1.623,3.814-.137.307-.122.344.06.592.835,1.141,1.654,2.317,2.445,3.455q.4.576.8,1.152a5.948,5.948,0,0,1-.714,8.255l-.951.953q-1.4,1.4-2.8,2.793a7.17,7.17,0,0,1-4.192,2,.777.777,0,0,1-.422-.053c-.309-.131-.625-.25-.941-.37a12.678,12.678,0,0,1-2.223-1.013c-1.371-.849-2.691-1.8-3.967-2.729l-.873-.63c-.183-.132-.232-.167-.606,0-1.2.526-2.425,1.029-3.612,1.515-1.111.455-2.26.926-3.375,1.413a.989.989,0,0,0-.435.448c-.275,1.31-.5,2.662-.713,3.97q-.134.818-.273,1.635a6.037,6.037,0,0,1-6.188,5.279C3665.461,1229.446,3664.463,1229.451,3663.454,1229.451Zm-17.192-15.851a2.4,2.4,0,0,1,.856.151c.941.369,1.886.765,2.8,1.148,1.341.562,2.727,1.143,4.106,1.641a2.253,2.253,0,0,1,1.644,1.967l.171,1.046c.262,1.6.532,3.264.885,4.865a4.261,4.261,0,0,0,4.3,3.452c1.813.022,3.657.013,5.39,0a4.445,4.445,0,0,0,4.653-3.977c.093-.541.182-1.083.272-1.624.218-1.324.444-2.694.726-4.038a2.462,2.462,0,0,1,1.342-1.563c1.131-.493,2.288-.967,3.407-1.426,1.178-.483,2.4-.982,3.575-1.5a1.978,1.978,0,0,1,2.152.164l.878.634c1.253.908,2.549,1.847,3.872,2.665a11.308,11.308,0,0,0,1.954.881c.263.1.526.2.786.305a5.594,5.594,0,0,0,3.112-1.535q1.4-1.385,2.791-2.785l.952-.954a4.412,4.412,0,0,0,.538-6.248q-.4-.577-.805-1.156c-.786-1.13-1.6-2.3-2.423-3.424a1.943,1.943,0,0,1-.227-2.156c.555-1.247,1.09-2.534,1.607-3.778.449-1.082.914-2.2,1.393-3.294a2.308,2.308,0,0,1,1.469-1.29c1.624-.336,3.395-.644,5.573-.969a4.471,4.471,0,0,0,4.13-4.439c.09-1.846.089-3.788,0-5.771a4.4,4.4,0,0,0-4.044-4.384c-.9-.149-1.792-.307-2.688-.465-.947-.168-1.893-.335-2.841-.491a2.022,2.022,0,0,1-1.718-1.466c-.806-2.171-1.739-4.444-2.772-6.756a2.157,2.157,0,0,1,.176-2.452c1.057-1.405,2.074-2.888,3.058-4.323l.225-.329a4.388,4.388,0,0,0-.483-5.929c-1.22-1.253-2.492-2.523-3.889-3.881a4.474,4.474,0,0,0-5.936-.407l-.082.058c-1.536,1.1-3.125,2.234-4.73,3.3a2.241,2.241,0,0,1-1.879.2c-2.337-.912-4.736-1.895-7.333-3a2.1,2.1,0,0,1-1.146-1.366c-.386-1.858-.722-3.753-1.046-5.585l-.051-.285a4.3,4.3,0,0,0-4.442-3.927c-1.811-.051-3.653-.051-5.472,0a4.358,4.358,0,0,0-4.479,3.913c-.222,1.249-.435,2.5-.647,3.75l-.267,1.56a2.419,2.419,0,0,1-1.75,2.134c-1.4.486-2.806,1.087-4.164,1.668-.855.366-1.738.745-2.622,1.094a2.324,2.324,0,0,1-1.951-.146c-1.256-.824-2.495-1.705-3.693-2.558q-.56-.4-1.12-.8a4.494,4.494,0,0,0-6.026.462c-1.117,1.1-2.241,2.229-3.328,3.323l-.332.334a4.431,4.431,0,0,0-.528,6.257q.548.787,1.1,1.567c.725,1.023,1.475,2.08,2.182,3.147a2.2,2.2,0,0,1,.19,1.856c-.483,1.226-.994,2.461-1.488,3.655-.483,1.169-.984,2.379-1.455,3.573a1.873,1.873,0,0,1-1.563,1.322c-.956.151-1.927.327-2.867.5-.978.177-1.988.36-2.99.517a4.367,4.367,0,0,0-3.771,4.014c-.061,2.17-.071,4.1-.032,5.915a4.419,4.419,0,0,0,3.929,4.595c1.992.358,3.831.663,5.622.931a2.051,2.051,0,0,1,1.734,1.472c.977,2.535,1.922,4.813,2.887,6.965a1.991,1.991,0,0,1-.216,2.156c-1.214,1.714-2.308,3.264-3.415,4.863a4.365,4.365,0,0,0,.42,5.681c1.348,1.413,2.7,2.771,4.021,4.037a4.334,4.334,0,0,0,5.84.435c.588-.406,1.171-.819,1.755-1.232,1.021-.723,2.078-1.47,3.148-2.172A2,2,0,0,1,3646.262,1213.6Zm17.391-6.11h-.235a23.949,23.949,0,0,1-23.628-24.168l.784.006-.784-.006a23.75,23.75,0,0,1,7.2-17.077,24.637,24.637,0,0,1,17.258-6.76h.249a23.05,23.05,0,0,1,16.329,7.011,24.552,24.552,0,0,1,7.015,17.581,23.211,23.211,0,0,1-7.307,16.607A24.283,24.283,0,0,1,3663.653,1207.49Zm.592-46.438a23.078,23.078,0,0,0-16.17,6.321,22.193,22.193,0,0,0-6.718,15.961h0a22.379,22.379,0,0,0,22.075,22.587h.212c12.167,0,22.5-9.964,22.625-21.861a23,23,0,0,0-6.566-16.467,21.494,21.494,0,0,0-15.223-6.541Z" transform="translate(-3617.858 -1137.491)" fill="#fff" stroke="#fff" stroke-width="2"></path>
    </g>
  </g>
</svg>
